<svg height='100px' width='100px'  fill="#000000" xmlns="http://www.w3.org/2000/svg" xmlns:xlink="http://www.w3.org/1999/xlink" version="1.1" x="0px" y="0px" viewBox="0 0 80 80" enable-background="new 0 0 80 80" xml:space="preserve"><g><g><path fill="#000000" d="M41,61.8c-7.3,0-13-3.6-13-8.2s5.7-8.2,13-8.2s13,3.6,13,8.2S48.3,61.8,41,61.8z M41,47.2    c-6,0-11,2.9-11,6.2s5,6.2,11,6.2s11-2.9,11-6.2S47,47.2,41,47.2z"></path></g><g><path fill="#000000" d="M41,55.1c-1.1,0-2-0.7-2-1.6s0.9-1.6,2-1.6s2,0.7,2,1.6S42.1,55.1,41,55.1z"></path></g><g><path fill="#000000" d="M60.2,69H21.8c-1.5,0-2.8-1.1-2.9-2.6l-2.6-25.1c-0.1-0.8,0.2-1.7,0.7-2.3c0.6-0.6,1.4-1,2.2-1h43.7    c0.8,0,1.6,0.4,2.2,1c0.6,0.6,0.8,1.5,0.7,2.3l-2.6,25.1C63,67.9,61.8,69,60.2,69z M19.2,40c-0.3,0-0.5,0.1-0.7,0.3    s-0.3,0.5-0.2,0.7l2.6,25.1c0,0.5,0.5,0.9,0.9,0.9h38.5c0.5,0,0.9-0.4,0.9-0.9l2.6-25.1c0-0.3-0.1-0.5-0.2-0.7S63.1,40,62.8,40    H19.2z"></path></g></g><g><g><path fill="#000000" d="M31.9,36.2L30.3,35c2.4-3,6.4-4.8,10.7-4.8c4.2,0,8.1,1.7,10.6,4.7L50,36.1c-2.1-2.5-5.4-3.9-9-3.9    C37.4,32.2,34,33.7,31.9,36.2z"></path></g><g><path fill="#000000" d="M65,35.1l-2-0.1l0.8-11c0.1-0.8-0.2-1.4-0.5-1.7C63.2,22.1,63,22,62.8,22H19.2c-0.2,0-0.4,0.1-0.5,0.2    c-0.3,0.3-0.6,0.9-0.5,1.7l0.8,11l-2,0.1l-0.8-11c-0.1-1.2,0.3-2.4,1-3.2c0.5-0.6,1.2-0.9,1.9-0.9h43.7c0.7,0,1.4,0.3,1.9,0.9    c0.7,0.8,1.1,2,1,3.2L65,35.1z"></path></g></g><g><g><path fill="#000000" d="M63,18.2l-2-0.3l0.7-5.6C61.7,12.1,61.4,12,61,12H21c-0.4,0-0.7,0.1-0.8,0.2l0.7,5.6l-2,0.3l-0.7-5.6    c-0.1-0.6,0.1-1.2,0.5-1.7c0.5-0.6,1.3-0.9,2.3-0.9h40c0.9,0,1.8,0.3,2.3,0.9c0.4,0.5,0.6,1,0.5,1.6L63,18.2z"></path></g></g></svg>